<svg width="119" height="40" viewBox="0 0 119 40" fill="none" xmlns="http://www.w3.org/2000/svg">
<path d="M14.9429 40C12.2693 40 9.5957 39.6703 6.92209 39.011C4.2851 38.3517 1.97774 37.4176 0 36.2088L3.95548 28.022C5.49372 29.0476 7.19677 29.8352 9.06464 30.3846C10.9691 30.9341 12.8187 31.2088 14.6133 31.2088C16.4812 31.2088 17.9645 30.8608 19.0632 30.1648C20.162 29.4689 20.7113 28.4799 20.7113 27.1978C20.7113 26.0623 20.2535 25.1648 19.3379 24.5055C18.4223 23.8095 16.9207 23.4615 14.833 23.4615H10.2733V16.5934L20.6015 5.43956L21.6453 9.17582H1.97774V0.769231H29.776V7.58242L19.4478 18.7363L14.1189 15.7143H17.0855C21.8833 15.7143 25.5092 16.7949 27.963 18.956C30.4535 21.0806 31.6988 23.8278 31.6988 27.1978C31.6988 29.3956 31.0945 31.4652 29.8858 33.4066C28.7138 35.348 26.9009 36.9414 24.4471 38.1868C21.9932 39.3956 18.8251 40 14.9429 40Z" fill="url(#paint0_linear_5450_13892)"/>
<path d="M52.165 40C48.8688 40 45.9388 39.2125 43.3751 37.6374C40.848 36.0623 38.8519 33.7912 37.3869 30.8242C35.9219 27.8571 35.1894 24.2491 35.1894 20C35.1894 15.7509 35.9219 12.1429 37.3869 9.17582C38.8519 6.20879 40.848 3.93773 43.3751 2.36264C45.9388 0.787547 48.8688 0 52.165 0C55.4246 0 58.318 0.787547 60.8451 2.36264C63.4088 3.93773 65.4232 6.20879 66.8882 9.17582C68.3532 12.1429 69.0857 15.7509 69.0857 20C69.0857 24.2491 68.3532 27.8571 66.8882 30.8242C65.4232 33.7912 63.4088 36.0623 60.8451 37.6374C58.318 39.2125 55.4246 40 52.165 40ZM52.165 31.0989C53.337 31.0989 54.3625 30.7326 55.2415 30C56.1571 29.2674 56.8713 28.0952 57.3841 26.4835C57.8968 24.8352 58.1532 22.674 58.1532 20C58.1532 17.2894 57.8968 15.1282 57.3841 13.5165C56.8713 11.9048 56.1571 10.7326 55.2415 10C54.3625 9.2674 53.337 8.9011 52.165 8.9011C50.993 8.9011 49.9492 9.2674 49.0336 10C48.1546 10.7326 47.4404 11.9048 46.8911 13.5165C46.3783 15.1282 46.1219 17.2894 46.1219 20C46.1219 22.674 46.3783 24.8352 46.8911 26.4835C47.4404 28.0952 48.1546 29.2674 49.0336 30C49.9492 30.7326 50.993 31.0989 52.165 31.0989Z" fill="url(#paint1_linear_5450_13892)"/>
<path d="M78.4563 39.2308L104.716 0.769231H112.627L86.3673 39.2308H78.4563ZM81.9723 21.5934C80.1045 21.5934 78.4197 21.1722 76.9181 20.3297C75.4165 19.4872 74.2445 18.2784 73.4021 16.7033C72.5597 15.0916 72.1386 13.1685 72.1386 10.9341C72.1386 8.69963 72.5597 6.79487 73.4021 5.21978C74.2445 3.64469 75.4165 2.4359 76.9181 1.59341C78.4197 0.714285 80.1045 0.274725 81.9723 0.274725C83.8768 0.274725 85.5616 0.714285 87.0265 1.59341C88.5282 2.4359 89.7002 3.64469 90.5425 5.21978C91.4215 6.79487 91.861 8.69963 91.861 10.9341C91.861 13.1319 91.4215 15.0366 90.5425 16.6484C89.7002 18.2601 88.5282 19.4872 87.0265 20.3297C85.5616 21.1722 83.8768 21.5934 81.9723 21.5934ZM82.0273 16.3736C82.9429 16.3736 83.6937 15.9524 84.2797 15.1099C84.9023 14.2674 85.2136 12.8755 85.2136 10.9341C85.2136 8.99267 84.9023 7.60073 84.2797 6.75824C83.6937 5.91575 82.9429 5.49451 82.0273 5.49451C81.1116 5.49451 80.3242 5.91575 79.665 6.75824C79.0423 7.60073 78.731 8.99267 78.731 10.9341C78.731 12.8755 79.0423 14.2674 79.665 15.1099C80.3242 15.9524 81.1116 16.3736 82.0273 16.3736ZM109.111 39.7253C107.207 39.7253 105.504 39.304 104.002 38.4615C102.537 37.619 101.383 36.4103 100.541 34.8352C99.6987 33.2234 99.2775 31.3004 99.2775 29.0659C99.2775 26.8315 99.6987 24.9267 100.541 23.3517C101.383 21.7766 102.537 20.5678 104.002 19.7253C105.504 18.8462 107.207 18.4066 109.111 18.4066C111.016 18.4066 112.701 18.8462 114.166 19.7253C115.667 20.5678 116.839 21.7766 117.682 23.3517C118.56 24.9267 119 26.8315 119 29.0659C119 31.3004 118.56 33.2234 117.682 34.8352C116.839 36.4103 115.667 37.619 114.166 38.4615C112.701 39.304 111.016 39.7253 109.111 39.7253ZM109.111 34.5055C110.027 34.5055 110.796 34.0842 111.419 33.2418C112.041 32.3993 112.353 31.0073 112.353 29.0659C112.353 27.1245 112.041 25.7326 111.419 24.8901C110.796 24.0476 110.027 23.6264 109.111 23.6264C108.232 23.6264 107.463 24.0476 106.804 24.8901C106.181 25.7326 105.87 27.1245 105.87 29.0659C105.87 31.0073 106.181 32.3993 106.804 33.2418C107.463 34.0842 108.232 34.5055 109.111 34.5055Z" fill="url(#paint2_linear_5450_13892)"/>
<defs>
<linearGradient id="paint0_linear_5450_13892" x1="6.5" y1="2.5" x2="113" y2="40" gradientUnits="userSpaceOnUse">
<stop stop-color="#01A7F8"/>
<stop offset="0.610577" stop-color="#0DD616"/>
<stop offset="1" stop-color="#F3EB01"/>
</linearGradient>
<linearGradient id="paint1_linear_5450_13892" x1="6.5" y1="2.5" x2="113" y2="40" gradientUnits="userSpaceOnUse">
<stop stop-color="#01A7F8"/>
<stop offset="0.610577" stop-color="#0DD616"/>
<stop offset="1" stop-color="#F3EB01"/>
</linearGradient>
<linearGradient id="paint2_linear_5450_13892" x1="6.5" y1="2.5" x2="113" y2="40" gradientUnits="userSpaceOnUse">
<stop stop-color="#01A7F8"/>
<stop offset="0.610577" stop-color="#0DD616"/>
<stop offset="1" stop-color="#F3EB01"/>
</linearGradient>
</defs>
</svg>
